<svg aria-hidden="true" style="position: absolute; width: 0; height: 0; overflow: hidden;" version="1.1" xmlns="http://www.w3.org/2000/svg" xmlns:xlink="http://www.w3.org/1999/xlink">
<defs>
<symbol id="icon-facebook" viewBox="0 0 33 32">
<path     d="M9.436 17.043h3.508v14.441c0 0.285 0.231 0.516 0.516 0.516h5.948c0.285 0 0.516-0.231 0.516-0.516v-14.373h4.032c0.262 0 0.483-0.197 0.513-0.457l0.612-5.316c0.017-0.146-0.030-0.293-0.127-0.402s-0.238-0.173-0.385-0.173h-4.645v-3.333c0-1.005 0.541-1.514 1.608-1.514 0.152 0 3.037 0 3.037 0 0.285 0 0.516-0.231 0.516-0.516v-4.88c0-0.285-0.231-0.516-0.516-0.516h-4.185c-0.030-0.001-0.095-0.004-0.192-0.004-0.726 0-3.25 0.143-5.244 1.977-2.209 2.033-1.902 4.467-1.829 4.889v3.897h-3.682c-0.285 0-0.516 0.231-0.516 0.516v5.248c0 0.285 0.231 0.516 0.516 0.516z"></path>
</symbol>
 
<symbol id="icon-telegram" viewBox="0 0 32 32">
<path      d="M31.718 3.446l-4.683 26.44c-0.354 1.866-1.275 2.33-2.584 1.452l-7.136-6.295-3.443 3.965c-0.381 0.456-0.699 0.837-1.434 0.837l0.513-8.7 13.225-14.306c0.575-0.613-0.125-0.954-0.893-0.34l-16.35 12.325-7.039-2.638c-1.531-0.572-1.559-1.832 0.319-2.712l27.532-12.698c1.275-0.572 2.39 0.34 1.974 2.671v-0.001z"></path>
</symbol>

<symbol id="icon-twitter" viewBox="0 0 42 32">
<path   d="M37.507 8.47c0.017 0.324 0.026 0.648 0.026 0.978 0 10.012-8.606 21.555-24.343 21.555-4.835 0-9.329-1.252-13.116-3.403 0.672 0.069 1.353 0.104 2.041 0.104 4.012 0 7.697-1.206 10.624-3.241-3.74-0.063-6.901-2.25-7.989-5.262 0.522 0.089 1.056 0.136 1.61 0.136 0.782 0 1.536-0.092 2.252-0.266-3.91-0.696-6.863-3.758-6.863-7.427 0-0.032 0-0.063 0-0.095 1.156 0.568 2.474 0.908 3.877 0.947-2.294-1.357-3.804-3.678-3.804-6.307 0-1.388 0.422-2.689 1.157-3.809 4.218 4.584 10.526 7.599 17.633 7.915-0.144-0.555-0.222-1.131-0.222-1.726 0-4.183 3.83-7.573 8.558-7.573 2.459 0 4.683 0.92 6.24 2.389 1.947-0.339 3.781-0.97 5.435-1.837-0.641 1.77-1.995 3.254-3.762 4.189 1.73-0.181 3.38-0.588 4.912-1.19-1.145 1.52-2.594 2.854-4.265 3.923z"></path>
</symbol>

<symbol id="icon-instagram" viewBox="0 0 32 32">
<path d="M16 2.667c3.623 0 4.075 0.013 5.496 0.080 1.42 0.067 2.387 0.289 3.237 0.62 0.88 0.339 1.621 0.797 2.363 1.537 0.661 0.65 1.184 1.438 1.522 2.318l0.015 0.045c0.329 0.849 0.553 1.817 0.62 3.237 0.063 1.421 0.080 1.873 0.080 5.496s-0.013 4.075-0.080 5.496c-0.067 1.42-0.291 2.387-0.62 3.237-0.352 0.925-0.876 1.713-1.536 2.362l-0.001 0.001c-0.65 0.661-1.438 1.184-2.318 1.522l-0.045 0.015c-0.849 0.329-1.817 0.553-3.237 0.62-1.421 0.063-1.873 0.080-5.496 0.080s-4.075-0.013-5.496-0.080c-1.42-0.067-2.387-0.291-3.237-0.62-0.925-0.353-1.713-0.876-2.362-1.536l-0.001-0.001c-0.661-0.65-1.184-1.438-1.522-2.318l-0.015-0.045c-0.331-0.849-0.553-1.817-0.62-3.237-0.063-1.421-0.080-1.873-0.080-5.496s0.013-4.075 0.080-5.496c0.067-1.421 0.289-2.387 0.62-3.237 0.352-0.925 0.875-1.713 1.536-2.362l0.001-0.001c0.65-0.661 1.438-1.184 2.318-1.522l0.045-0.015c0.851-0.331 1.816-0.553 3.237-0.62 1.421-0.063 1.873-0.080 5.496-0.080zM16 9.333c-3.682 0-6.667 2.985-6.667 6.667s2.985 6.667 6.667 6.667v0c3.682 0 6.667-2.985 6.667-6.667s-2.985-6.667-6.667-6.667v0zM24.667 9c0-0.92-0.746-1.667-1.667-1.667s-1.667 0.746-1.667 1.667v0c0 0.92 0.746 1.667 1.667 1.667s1.667-0.746 1.667-1.667v0zM16 12c2.209 0 4 1.791 4 4s-1.791 4-4 4v0c-2.209 0-4-1.791-4-4s1.791-4 4-4v0z"></path>
</symbol>

<symbol id="icon-telephone" viewBox="0 0 32 32">
<path  d="M3.77 1.022c0.631-0.63 1.503-1.020 2.466-1.020 1.116 0 2.109 0.524 2.748 1.339l0.006 0.008 3.59 4.612c0.658 0.846 0.89 1.948 0.63 2.988l-1.094 4.38c-0.026 0.098-0.040 0.212-0.040 0.328 0 0.374 0.151 0.713 0.396 0.958l4.914 4.914c0.245 0.245 0.584 0.397 0.958 0.397 0.117 0 0.231-0.015 0.339-0.043l-0.009 0.002 4.378-1.094c0.254-0.066 0.546-0.104 0.847-0.104 0.811 0 1.557 0.276 2.149 0.74l-0.008-0.006 4.612 3.588c1.658 1.29 1.81 3.74 0.326 5.222l-2.068 2.068c-1.48 1.48-3.692 2.13-5.754 1.404-5.488-1.964-10.173-4.983-14.019-8.839l-0.001-0.001c-3.857-3.846-6.875-8.531-8.758-13.758l-0.082-0.26c-0.724-2.060-0.074-4.274 1.406-5.754l2.068-2.068z"></path>
</symbol>
<symbol id="icon-email" viewBox="0 0 32 32">
<path   d="M0.1 7.11c0.42-1.794 2.006-3.11 3.9-3.11 0 0 0 0 0 0h24c0 0 0 0 0 0 1.894 0 3.48 1.316 3.894 3.083l0.005 0.027-15.9 9.718-15.9-9.718zM0 9.394v14.208l11.606-7.116-11.606-7.092zM13.522 17.66l-13.14 8.054c0.657 1.363 2.028 2.286 3.614 2.286 0.001 0 0.003 0 0.004 0h24c0 0 0.001 0 0.001 0 1.587 0 2.958-0.924 3.605-2.264l0.010-0.024-13.14-8.054-2.476 1.514-2.478-1.514zM20.394 16.488l11.606 7.114v-14.208l-11.606 7.092z"></path>
</symbol>
</defs>
</svg>
