<svg width="148" height="53" viewBox="0 0 148 53" fill="none" xmlns="http://www.w3.org/2000/svg">
<path d="M50.4002 14.7998H53.2002L61.0002 33.5999H57.2002L55.3002 28.6998H48.4002L46.5002 33.5999H42.7002L50.4002 14.7998ZM54.0002 25.3998L51.9002 19.8998L49.8002 25.3998H54.0002Z" fill="white"/>
<path d="M63 14.7998H68.2C76.8 14.7998 78.3 20.5998 78.3 24.2998C78.3 26.2998 77.8 33.5999 68.3 33.5999H63V14.7998ZM68.2 30.2998C70.1 30.2998 74.8 30.0998 74.8 24.3998C74.8 18.4998 69.9 18.2998 68 18.2998H66.5V30.2998H68.2Z" fill="white"/>
<path d="M80.8002 14.7998H86.2002C92.5002 14.7998 93.3002 18.9998 93.3002 20.7998C93.3002 23.7998 91.3002 26.3998 88.2002 26.6998L93.5002 33.5999H89.2002L84.3002 26.6998H84.2002V33.5999H80.7002V14.7998H80.8002ZM84.3002 23.7998H86.4002C87.2002 23.7998 89.9002 23.6999 89.9002 20.9999C89.9002 18.2999 87.2002 18.1998 86.4002 18.1998H84.3002V23.7998Z" fill="white"/>
<path d="M114.4 24.3995C114.4 29.7995 110.1 34.1996 104.5 34.1996C98.9001 34.1996 94.6001 29.8995 94.6001 24.3995C94.6001 18.9995 98.9001 14.5996 104.5 14.5996C110.1 14.5996 114.4 18.8995 114.4 24.3995ZM110.9 24.2996C110.9 20.7996 108.2 17.8995 104.5 17.8995C100.8 17.8995 98.1001 20.7996 98.1001 24.2996C98.1001 27.8996 100.9 30.7996 104.5 30.7996C108.2 30.6996 110.9 27.7996 110.9 24.2996Z" fill="white"/>
<path d="M32.4998 0H27.7998V40.2H32.4998V0Z" fill="#1976D2"/>
<path d="M25.4998 18.5H20.7998V52.2H25.4998V18.5Z" fill="#1E88E5"/>
<path d="M18.5999 16H13.8999V40.2H18.5999V16Z" fill="#2196F3"/>
<path d="M11.5999 9.2002H6.8999V27.7002H11.5999V9.2002Z" fill="#42A5F5"/>
<path d="M4.69998 21.4004H0V34.0005H4.69998V21.4004Z" fill="#64B5F6"/>
<path d="M119.205 14.8379H128.805V18.2379H122.705V22.5379H128.505V25.9379H122.705V33.6379H119.205V14.8379Z" fill="#F44336"/>
<path d="M136.305 24.2379L129.805 14.8379H133.905L138.405 21.3379L142.905 14.8379H147.005L140.505 24.2379L147.005 33.6379H142.805L138.305 27.1379L133.805 33.6379H129.805L136.305 24.2379Z" fill="#F44336"/>
</svg>
